<svg xmlns="http://www.w3.org/2000/svg" xmlns:xlink="http://www.w3.org/1999/xlink" viewBox="0 0 512 512">
  <defs>
    <linearGradient id="a" x1="100%" x2="0%" y1="0%" y2="100%">
      <stop offset="0%" stop-color="#61DAFB" />
      <stop offset="100%" stop-color="#45B8D9" />
    </linearGradient>
  </defs>
  <path fill="url(#a)" d="M506.38 182.6c-1.8-4.4-5.6-7.8-10.4-9.1l-154.4-43.7-43.7-154.4c-1.3-4.8-4.7-8.6-9.1-10.4-5.2-2-11.1-.6-15 3.4L346.9 96 246 196.9 98.2 49.2c-4-3.9-10.4-5.4-15-3.4-4.4 1.8-7.8 5.6-9.1 10.4l-43.7 154.4L.6 302.6c-2 5.2-.6 11.1 3.4 15l147.7 147.7 154.4 43.7c4.4 1.8 8.6-.1 10.4-4.5l43.7-154.4 100.9-100.9 147.7-47.1c4-1.3 6.7-4.8 8.1-9 1.3-4.2.3-8.8-2.5-12.2zM409.3 256l-100.9 100.9-43.7 154.4-154.4-43.7L49.2 256 150.1 155.1l43.7-154.4 154.4 43.7 61.1 61.1 47.1 147.7z" />
  <path fill="url(#a)" d="M256 160c-53 0-96 43-96 96s43 96 96 96 96-43 96-96-43-96-96-96zm0 160c-35.3 0-64-28.7-64-64s28.7-64 64-64 64 28.7 64 64-28.7 64-64 64z" />
</svg>
